<svg xmlns="http://www.w3.org/2000/svg" viewBox="0 0 286.3 93.25">
    <path fill="#cfff71" d="m275.6,92.67c5.29,0,9.29-3.87,9.29-9.29s-4-9.29-9.29-9.29-9.29,3.87-9.29,9.29,4,9.29,9.29,9.29ZM19.21,75.51v-26.57h26.95c8.38,0,13.8,5.29,13.8,13.28s-5.42,13.28-13.8,13.28h-26.95Zm94.79,16.25h16.51v-57.13c0-4.77-3.48-8.25-8.25-8.25s-8.25,3.48-8.25,8.25v57.13Zm26.82,0h16.51v-39.59c0-6.45,4.64-10.96,10.7-10.96s10.7,4.51,10.7,10.96v39.59h16.51v-38.82c0-15.48-11.74-27.47-27.21-27.47s-27.21,11.99-27.21,27.47v38.82ZM19.21,33.34v-15.6h18.83c5.93,0,9.8,3.48,9.8,8.77,0,2.97-1.16,5.29-3.22,6.84h-25.41Zm186.35,58.42h16.51v-29.28l22.18,29.28h19.47l-26.31-33.4,25.02-31.08h-18.18l-22.18,28.5V1.49h-16.51v90.28Zm-119.16,0h16.51V1.49h-16.51v90.28Zm-84.99,0h46.69c17.02,0,29.79-12.38,29.79-29.02,0-11.48-6.32-21.02-15.99-25.66,2.32-3.48,3.74-7.74,3.74-12.38,0-13.28-11.09-23.21-25.66-23.21H1.42v90.28ZM122.26,19.16c5.29,0,9.29-3.87,9.29-9.29s-4-9.29-9.29-9.29-9.29,3.87-9.29,9.29,4,9.29,9.29,9.29Z"/>
</svg>
